<?xml version="1.0" encoding="UTF-8"?>
<svg id="Layer_1" xmlns="http://www.w3.org/2000/svg" version="1.1" viewBox="0 0 1469.23 606.35">
  <!-- Generator: Adobe Illustrator 29.5.0, SVG Export Plug-In . SVG Version: 2.1.0 Build 137)  -->
  <defs>
    <style>
      .st0 {
        fill: #ff9e18;
      }

      .st1 {
        fill: #6abf4b;
      }

      .st2 {
        fill: #fff;
      }

      .st3 {
        fill: #cf63ce;
      }
    </style>
  </defs>
  <g>
    <polygon class="st3" points="521.88 117.76 538 155.93 576.17 172.05 538 188.16 521.88 226.34 505.77 188.16 467.59 172.05 505.77 155.93 521.88 117.76"/>
    <polygon class="st0" points="518.15 17.91 526.17 36.92 545.19 44.95 526.17 52.98 518.15 71.99 510.12 52.98 491.1 44.95 510.12 36.92 518.15 17.91"/>
    <polygon class="st1" points="444.1 63.57 454.05 87.14 477.62 97.09 454.05 107.04 444.1 130.62 434.15 107.04 410.58 97.09 434.15 87.14 444.1 63.57"/>
  </g>
  <polygon points="386.82 117.76 230.26 325.21 230.26 271.54 168.97 271.54 168.97 406.41 37.27 580.92 112.59 580.92 386.82 217.53 660.7 580.92 736.02 580.92 386.82 117.76"/>
  <g>
    <path class="st0" d="M406.34,550.41c-4.7-5.87-9.56-11.93-14.73-17.41-.46-.49-.93-.92-1.38-1.31-1.56-1.33-3.04-2.07-4.28-2.07-1.91,0-3.75,1.79-4.96,3.29-.11.14-.21.28-.32.41-.02.02-.03.04-.04.06-1.97,2.46-3.89,4.94-5.81,7.42-.65.84-1.33,1.68-1.98,2.52-7.28,9.41-14.8,19.15-23.72,27.85-3.29,3.21-6.73,6.33-10.25,9.4h95.54c-2.64-2.31-5.24-4.66-7.78-7.08-7.52-7.16-14.01-15.25-20.28-23.08Z"/>
    <path class="st1" d="M611.37,571.42l-98.15-127.88-44.06-59.14c-6.56,6.77-12.41,13.17-17.76,19.52-7.11,8.43-12.91,16.28-17.8,23.92-.78,1.22-1.59,2.44-2.32,3.65l-.24.39c-15.3,25.58-16.6,57.94-3.94,85.52.58,1.27,1.03,2.58,1.67,3.83,5.49,10.66,12.89,21.46,22.64,33.01,7.02,8.33,15.07,16.98,24.47,26.33h130.92c4.71,0,7.4-5.39,4.56-9.15Z"/>
    <path class="st3" d="M342.88,524.6c10.25-17.93,13.87-38.72,11.07-58.63-1.45-10.27-4.49-20.31-9.44-29.58-.9-1.68-1.83-3.32-2.81-4.94-5.28-8.76-11.86-17.77-20.1-27.54-5.29-6.28-11.08-12.61-17.55-19.31l-26.42,35.47-117.1,151.3c-2.88,3.76-.2,9.19,4.53,9.19h132.09c8.75-8.71,16.35-16.82,23.08-24.69,8.75-10.24,15.34-19.22,20.65-27.99.66-1.09,1.38-2.2,2-3.28Z"/>
    <path class="st0" d="M322.8,362.32l1.1.9,1.38,1.11c3.38,2.67,6.84,5.64,10.29,8.84,1.52,1.41,2.99,2.87,4.42,4.37,10.18,10.6,19.29,23.93,33.38,29.65,9.33,3.79,20.71,3.25,29.59-1.6,8.89-4.85,15.95-13.25,23.17-20.17,8.43-8.08,17.36-15.65,26.79-22.55l-61.68-83.08c-2.29-3.03-6.83-3.03-9.12,0l-60.67,81.45h0c.44.36.93.73,1.35,1.07ZM386.88,323.98c18.21,0,32.97,14.76,32.97,32.97s-14.76,32.97-32.97,32.97-32.97-14.76-32.97-32.97,14.76-32.97,32.97-32.97Z"/>
    <path class="st2" d="M386.88,389.92c18.21,0,32.97-14.76,32.97-32.97s-14.76-32.97-32.97-32.97-32.97,14.76-32.97,32.97,14.76,32.97,32.97,32.97Z"/>
    <path class="st2" d="M475.89,580.57c-9.4-9.35-17.45-18-24.47-26.33-9.74-11.55-17.15-22.35-22.64-33.01-.64-1.25-1.09-2.56-1.67-3.83-12.66-27.59-11.36-59.95,3.94-85.52l.24-.39c.73-1.21,1.54-2.43,2.32-3.65,4.88-7.65,10.69-15.5,17.8-23.92,5.35-6.35,11.2-12.75,17.76-19.52,3.5-3.61,7.14-7.3,11.15-11.21l.63-.61c3.66-3.55,4.56-9.24,2.18-13.84l-.62-1.2c-1.43-2.76-3.82-4.75-6.72-5.6-.99-.29-2-.43-3.01-.43-2.02,0-4,.58-5.72,1.67-4.79,3.02-9.44,6.26-14.01,9.59-.05.03-.09.07-.13.11-9.43,6.9-18.36,14.46-26.79,22.55-7.22,6.92-14.28,15.32-23.17,20.17-8.88,4.85-20.26,5.4-29.59,1.6-14.09-5.73-23.2-19.05-33.38-29.65-1.44-1.49-2.9-2.96-4.42-4.37-3.45-3.2-6.92-6.17-10.29-8.84l-1.38-1.11-1.1-.9c-.42-.35-.91-.72-1.35-1.07-5.1-4.12-11.25-8.74-18.63-9.4-.4-.04-.79-.05-1.19-.05-2.62,0-5.27.78-7.46,2.2l-.96.62-.63.96-3.02,4.6-.67,1.02-.17,1.21c-.55,3.86.67,7.56,3.35,10.17l.61.6c4.1,3.99,7.81,7.76,11.38,11.44,6.47,6.69,12.26,13.03,17.55,19.31,8.24,9.77,14.82,18.78,20.1,27.54.98,1.62,1.91,3.26,2.81,4.94,4.95,9.26,8,19.31,9.44,29.58,2.8,19.9-.81,40.69-11.07,58.63-.62,1.09-1.34,2.19-2,3.28-5.32,8.77-11.9,17.75-20.65,27.99-6.73,7.87-14.33,15.99-23.08,24.69-.62.62-1.2,1.21-1.83,1.83-3.99,3.93-4.94,10.18-2.33,15.21,1.57,3.03,4.3,5.29,7.5,6.19,1.04.3,2.12.45,3.2.45,2.26,0,4.47-.67,6.39-1.92,10.22-6.68,19.84-13.98,28.78-21.76,3.52-3.06,6.96-6.18,10.25-9.4,8.92-8.7,16.45-18.43,23.72-27.85.65-.84,1.32-1.68,1.98-2.52,1.92-2.48,3.84-4.95,5.85-7.47.11-.14.21-.28.32-.41,1.21-1.5,3.05-3.29,4.96-3.29,1.24,0,2.72.73,4.28,2.07.46.39.92.82,1.38,1.31,5.17,5.48,10.03,11.54,14.73,17.41,6.27,7.83,12.76,15.92,20.28,23.08,2.54,2.41,5.14,4.76,7.78,7.08,8.99,7.88,18.54,15.18,28.53,21.74,1.92,1.27,4.14,1.94,6.42,1.94,1.08,0,2.15-.15,3.2-.45,3.19-.9,5.93-3.16,7.5-6.2,2.61-5.02,1.65-11.27-2.33-15.21-.63-.62-1.2-1.21-1.82-1.83Z"/>
  </g>
  <g>
    <g>
      <path d="M633.64,254.14c0-2.26,2.03-4.29,4.29-4.29h21.01c2.48,0,4.29,2.03,4.29,4.29v59.86h73.64v-59.86c0-2.26,1.81-4.29,4.29-4.29h20.78c2.26,0,4.29,2.03,4.29,4.29v149.55c0,2.26-2.03,4.29-4.29,4.29h-20.78c-2.48,0-4.29-2.03-4.29-4.29v-62.35h-73.64v62.35c0,2.26-1.81,4.29-4.29,4.29h-21.01c-2.26,0-4.29-2.03-4.29-4.29v-149.55Z"/>
      <path d="M790.91,296.95c0-3.21,2.03-5.54,4.29-5.54h18.75c2.26,0,4.29,2.33,4.29,5.54v105.49c0,2.91-2.03,5.54-4.29,5.54h-18.75c-2.26,0-4.29-2.62-4.29-5.54v-105.49Z"/>
      <path d="M845.31,254.14c0-2.26,1.81-4.29,4.29-4.29h20.78c2.26,0,4.29,2.03,4.29,4.29v126.73h57.61c2.49,0,4.29,2.03,4.29,4.29v18.52c0,2.26-1.81,4.29-4.29,4.29h-82.68c-2.49,0-4.29-2.03-4.29-4.29v-149.55Z"/>
      <path d="M959.38,254.14c0-2.26,1.81-4.29,4.29-4.29h20.78c2.26,0,4.29,2.03,4.29,4.29v126.73h57.61c2.49,0,4.29,2.03,4.29,4.29v18.52c0,2.26-1.81,4.29-4.29,4.29h-82.68c-2.49,0-4.29-2.03-4.29-4.29v-149.55Z"/>
      <path d="M1076.17,276.96h-34.56c-2.49,0-4.29-2.03-4.29-4.29v-18.52c0-2.26,1.81-4.29,4.29-4.29h98.72c2.49,0,4.29,2.03,4.29,4.29v18.52c0,2.26-1.81,4.29-4.29,4.29h-34.56v126.73c0,2.26-2.03,4.29-4.29,4.29h-21.01c-2.26,0-4.29-2.03-4.29-4.29v-126.73Z"/>
      <path d="M1226.62,247.59c45.18,0,81.33,36.37,81.33,81.55s-36.14,81.1-81.33,81.1-81.1-35.92-81.1-81.1,35.92-81.55,81.1-81.55ZM1226.62,380.87c28.46,0,51.96-23.27,51.96-51.73s-23.49-52.18-51.96-52.18-51.73,23.72-51.73,52.18,23.27,51.73,51.73,51.73Z"/>
      <path d="M1323.98,254.14c0-2.26,1.81-4.29,4.29-4.29h53.09c27.79,0,50.6,22.59,50.6,49.92s-22.82,50.83-50.38,50.83h-28.24v53.09c0,2.26-2.03,4.29-4.29,4.29h-20.78c-2.49,0-4.29-2.03-4.29-4.29v-149.55ZM1379.55,323.04c12.65,0,23.27-10.17,23.27-23.49,0-12.42-10.62-21.91-23.27-21.91h-26.2v45.41h26.2Z"/>
    </g>
    <g>
      <path d="M776.59,449.45c0-1.78,1.6-3.38,3.38-3.38h6.94c1.96,0,3.38,1.6,3.38,3.38v51.97h72.26v-51.97c0-1.78,1.42-3.38,3.38-3.38h6.94c1.78,0,3.38,1.6,3.38,3.38v117.83c0,1.78-1.6,3.38-3.38,3.38h-6.94c-1.96,0-3.38-1.6-3.38-3.38v-53.93h-72.26v53.93c0,1.78-1.42,3.38-3.38,3.38h-6.94c-1.78,0-3.38-1.6-3.38-3.38v-117.83Z"/>
      <path d="M967.39,444.29c35.6,0,64.08,28.66,64.08,64.25s-28.48,63.9-64.08,63.9-63.9-28.3-63.9-63.9,28.3-64.25,63.9-64.25ZM967.39,559.98c28.3,0,51.62-23.14,51.62-51.44s-23.32-51.8-51.62-51.8-51.44,23.49-51.44,51.8,23.14,51.44,51.44,51.44Z"/>
      <path d="M1072.75,446.78c.36-1.42,1.78-2.49,3.2-2.49h2.85c1.25,0,2.67.89,3.03,1.96l35.24,98.07h.89l34.71-98.07c.36-1.07,1.78-1.96,3.03-1.96h2.85c1.42,0,2.85,1.07,3.2,2.49l22.96,119.61c.53,2.49-.53,4.27-3.2,4.27h-7.12c-1.42,0-2.85-1.25-3.2-2.49l-15.84-91.66h-.71l-32.75,93.98c-.36,1.07-1.96,1.96-3.03,1.96h-3.2c-1.07,0-2.67-.89-3.03-1.96l-33.11-93.98h-.71l-15.49,91.66c-.18,1.25-1.78,2.49-3.2,2.49h-7.12c-2.67,0-3.74-1.78-3.2-4.27l22.96-119.61Z"/>
      <path d="M1212.12,449.45c0-1.78,1.42-3.38,3.38-3.38h70.13c1.96,0,3.38,1.6,3.38,3.38v5.16c0,1.78-1.42,3.38-3.38,3.38h-59.8v43.43h51.08c1.78,0,3.38,1.6,3.38,3.38v5.16c0,1.96-1.6,3.38-3.38,3.38h-51.08v45.39h59.8c1.96,0,3.38,1.6,3.38,3.38v5.16c0,1.78-1.42,3.38-3.38,3.38h-70.13c-1.96,0-3.38-1.6-3.38-3.38v-117.83Z"/>
    </g>
  </g>
  <polygon class="st0" points="805.33 224.9 813.57 244.42 833.09 252.66 813.57 260.9 805.33 280.43 797.08 260.9 777.56 252.66 797.08 244.42 805.33 224.9"/>
</svg>